<?xml version="1.0" standalone="no"?>
<!DOCTYPE svg PUBLIC "-//W3C//DTD SVG 20010904//EN"
 "http://www.w3.org/TR/2001/REC-SVG-20010904/DTD/svg10.dtd">
<svg version="1.0" xmlns="http://www.w3.org/2000/svg"
 width="234.000000pt" height="215.000000pt" viewBox="0 0 234.000000 215.000000"
 preserveAspectRatio="xMidYMid meet">
<metadata>
Created by potrace 1.16, written by Peter Selinger 2001-2019
</metadata>
<g transform="translate(0.000000,215.000000) scale(0.100000,-0.100000)"
fill="#0e9bcf" stroke="none">
<path d="M883 2135 c-410 -74 -746 -388 -849 -793 -136 -531 157 -1083 674
-1272 358 -131 793 -52 1067 194 l60 53 91 -69 c50 -37 94 -68 97 -68 4 0 7
113 7 251 l0 251 -22 -5 c-13 -3 -126 -29 -253 -57 -126 -28 -234 -52 -240
-54 -5 -1 32 -34 83 -72 51 -38 92 -72 92 -76 0 -18 -123 -103 -215 -148 -163
-80 -323 -109 -491 -90 -385 43 -688 306 -790 686 -14 53 -18 103 -18 219 1
134 4 160 28 240 77 254 239 446 471 560 130 64 205 85 337 94 54 3 102 11
109 18 20 20 23 100 5 128 -15 23 -22 25 -94 24 -42 0 -109 -7 -149 -14z"/>
<path d="M1759 1654 c-5 -15 -81 -215 -169 -445 -88 -231 -160 -424 -160 -430
0 -6 19 -9 47 -7 l46 3 153 400 c84 220 162 424 173 453 l20 52 -50 0 c-44 0
-51 -3 -60 -26z"/>
<path d="M622 1618 c-51 -17 -108 -86 -121 -147 -19 -91 -19 -91 48 -91 l59 0
6 45 c5 32 15 51 38 70 37 32 71 28 107 -12 20 -23 23 -34 18 -79 -7 -68 -40
-131 -157 -299 -53 -77 -104 -151 -113 -165 -11 -16 -17 -45 -17 -82 l0 -58
200 0 200 0 0 60 0 59 -125 3 -125 3 107 160 c112 167 138 220 148 302 10 69
-9 127 -57 179 -56 60 -131 79 -216 52z"/>
<path d="M1127 1623 c-3 -5 -53 -122 -111 -260 -98 -234 -106 -258 -106 -318
l0 -65 110 0 110 0 0 -90 0 -90 60 0 60 0 0 90 0 90 40 0 40 0 0 60 0 60 -40
0 -40 0 0 265 0 265 -59 0 c-33 0 -62 -3 -64 -7z m-1 -520 c-2 -2 -26 -3 -54
-1 l-50 3 52 130 51 129 3 -128 c1 -71 1 -131 -2 -133z"/>
<path d="M1960 1570 l0 -60 125 0 c105 0 125 -2 125 -15 0 -13 -149 -622 -166
-677 -5 -16 2 -18 55 -18 l60 0 10 38 c87 327 171 691 171 737 l0 55 -190 0
-190 0 0 -60z"/>
</g>
</svg>
