<?xml version="1.0" standalone="no"?>
<!DOCTYPE svg PUBLIC "-//W3C//DTD SVG 20010904//EN"
 "http://www.w3.org/TR/2001/REC-SVG-20010904/DTD/svg10.dtd">
<svg version="1.0" xmlns="http://www.w3.org/2000/svg"
 width="315.000000pt" height="160.000000pt" viewBox="0 0 315.000000 160.000000"
 preserveAspectRatio="xMidYMid meet">
<metadata>
Created by potrace 1.16, written by Peter Selinger 2001-2019
</metadata>
<g transform="translate(0.000000,160.000000) scale(0.100000,-0.100000)"
fill="#0e9bcf" stroke="none">
<path d="M1954 1440 c-11 -4 -33 -22 -47 -40 -50 -59 -30 -143 39 -164 41 -13
116 33 135 82 5 12 15 22 24 22 25 0 17 17 -28 65 -45 46 -74 55 -123 35z"/>
<path d="M1819 1171 c-20 -15 -36 -55 -78 -199 -30 -99 -51 -187 -48 -195 3
-7 60 -35 127 -62 67 -26 124 -54 127 -62 4 -9 -10 -64 -31 -122 -40 -115 -44
-146 -21 -155 23 -8 71 13 83 37 22 42 92 230 98 261 8 44 -24 81 -100 117
-34 16 -67 29 -73 29 -7 0 -13 4 -13 9 0 18 42 146 51 156 6 5 24 -6 49 -30
49 -48 76 -50 180 -11 77 29 123 66 114 90 -9 24 -38 24 -123 -2 l-83 -26 -30
35 c-16 18 -40 50 -53 69 -46 67 -131 97 -176 61z"/>
<path d="M722 1098 c-15 -15 -15 -41 0 -56 9 -9 109 -12 388 -12 382 0 400 -2
400 -37 0 -7 -9 -22 -20 -33 -18 -18 -33 -20 -155 -20 l-134 0 -9 -32 -8 -33
-180 -3 c-168 -2 -180 -3 -196 -23 -13 -16 -15 -26 -8 -40 10 -18 24 -19 188
-19 174 0 177 0 187 -22 10 -23 14 -23 195 -26 203 -3 224 -1 235 25 18 44 61
309 53 326 -8 16 -41 17 -466 17 -343 0 -461 -3 -470 -12z"/>
<path d="M2238 928 c-33 -11 -32 -8 -12 -142 l15 -104 -84 -84 c-63 -63 -94
-103 -126 -165 l-42 -83 -113 0 -112 0 -24 93 c-13 50 -25 97 -27 102 -2 6 17
21 42 34 79 42 81 80 6 101 -22 6 -240 10 -567 10 -502 0 -532 -1 -547 -18
-22 -24 -22 -49 1 -60 9 -5 149 -8 309 -8 161 1 293 0 293 -1 0 -1 -7 -29 -16
-63 -8 -34 -14 -63 -12 -66 2 -2 30 16 62 40 91 68 164 82 243 47 49 -23 83
-67 138 -179 l39 -82 173 0 c116 0 173 4 173 11 0 27 71 160 106 199 68 75
159 98 249 64 63 -24 84 -27 100 -14 33 27 -41 106 -123 131 -47 14 -56 22
-66 61 -5 23 -2 27 24 33 42 9 67 48 52 80 -8 18 -22 26 -53 31 -23 4 -45 15
-52 25 -13 21 -12 21 -49 7z"/>
<path d="M1339 513 c-134 -68 -169 -248 -65 -328 129 -98 336 34 324 205 -10
132 -128 189 -259 123z m157 -74 c75 -71 2 -209 -111 -209 -59 0 -95 36 -95
95 0 111 132 184 206 114z"/>
<path d="M2254 526 c-118 -52 -182 -217 -117 -304 39 -52 70 -67 137 -67 52 0
71 5 112 30 174 108 137 356 -53 355 -26 -1 -62 -7 -79 -14z m137 -82 c10 -9
23 -31 29 -50 24 -73 -49 -164 -133 -164 -51 0 -76 15 -93 56 -36 85 50 192
145 179 18 -2 42 -12 52 -21z"/>
</g>
</svg>
