<?xml version="1.0" standalone="no"?>
<!DOCTYPE svg PUBLIC "-//W3C//DTD SVG 20010904//EN"
 "http://www.w3.org/TR/2001/REC-SVG-20010904/DTD/svg10.dtd">
<svg version="1.0" xmlns="http://www.w3.org/2000/svg"
 width="920.000000pt" height="512.000000pt" viewBox="0 0 920.000000 512.000000"
 preserveAspectRatio="xMidYMid meet">

<g transform="translate(0.000000,512.000000) scale(0.100000,-0.100000)"
fill="#000000" stroke="none">
<path d="M3693 5105 c-183 -40 -344 -200 -388 -386 -13 -56 -15 -325 -15
-2159 0 -2309 -4 -2159 63 -2283 69 -130 219 -241 361 -266 82 -15 1700 -15
1782 0 195 35 372 209 413 407 8 37 11 673 11 2145 0 1831 -2 2100 -15 2156
-45 188 -205 347 -392 386 -97 21 -1726 20 -1820 0z m1537 -193 c43 -35 17
-112 -38 -112 -56 0 -83 69 -42 110 25 25 51 25 80 2z m-390 -72 c11 -11 20
-31 20 -45 0 -14 -9 -34 -20 -45 -19 -19 -33 -20 -240 -20 -207 0 -221 1 -240
20 -11 11 -20 31 -20 45 0 14 9 34 20 45 19 19 33 20 240 20 207 0 221 -1 240
-20z m940 -2210 l0 -1970 -1180 0 -1180 0 0 1970 0 1970 1180 0 1180 0 0
-1970z m-940 -2250 c11 -11 20 -31 20 -45 0 -14 -9 -34 -20 -45 -19 -19 -33
-20 -240 -20 -207 0 -221 1 -240 20 -11 11 -20 31 -20 45 0 14 9 34 20 45 19
19 33 20 240 20 207 0 221 -1 240 -20z"/>
</g>
</svg>
