<?xml version="1.0" standalone="no"?>
<!DOCTYPE svg PUBLIC "-//W3C//DTD SVG 20010904//EN"
 "http://www.w3.org/TR/2001/REC-SVG-20010904/DTD/svg10.dtd">
<svg version="1.0" xmlns="http://www.w3.org/2000/svg"
 width="840.000000pt" height="774.000000pt" viewBox="0 0 840.000000 774.000000"
 preserveAspectRatio="xMidYMid meet">

<g transform="translate(0.000000,774.000000) scale(0.100000,-0.100000)"
fill="#000000" stroke="none">
<path d="M2092 7239 c-80 -15 -160 -86 -144 -127 3 -8 1 -13 -4 -10 -5 4 -10
-4 -10 -15 -1 -12 -7 -51 -13 -87 -7 -41 -11 -235 -11 -519 1 -249 -1 -455 -3
-458 -7 -6 2 -5102 9 -5220 7 -126 27 -172 99 -226 105 -79 144 -81 1445 -82
1078 0 1296 6 1413 36 39 10 47 23 21 33 -13 5 -10 11 15 32 17 14 31 31 31
37 0 6 -10 1 -22 -10 -32 -29 -83 -53 -110 -53 -14 1 -2 8 30 19 29 10 63 28
75 39 12 11 27 22 32 24 6 2 10 11 9 20 0 9 3 15 7 13 4 -3 9 5 13 18 3 12 6
888 7 1947 0 1153 4 1917 9 1905 10 -21 38 -155 145 -690 35 -176 116 -574
179 -885 63 -311 169 -832 236 -1159 144 -708 169 -825 216 -996 40 -143 99
-285 120 -285 8 0 20 -16 28 -35 20 -46 36 -44 36 4 0 23 5 41 13 44 9 3 12
37 11 128 -1 145 -26 303 -115 739 -33 162 -91 448 -129 635 -38 187 -133 646
-210 1020 -78 374 -151 728 -163 787 -16 84 -25 107 -37 105 -10 -1 -14 5 -12
18 3 20 3 20 -11 1 -17 -23 -37 -13 -36 17 0 21 1 21 8 2 8 -19 8 -19 15 2 4
14 12 20 22 16 17 -6 17 -3 3 73 -14 68 -19 77 -39 64 -13 -8 -12 -10 3 -10 9
0 17 -4 17 -10 0 -17 -50 -11 -57 7 -4 9 -1 19 5 21 17 5 15 22 -3 22 -9 0
-15 9 -15 21 0 18 5 21 30 17 24 -4 30 -1 30 14 0 12 -6 18 -17 16 -13 -2 -17
3 -15 17 2 18 1 18 -11 -3 -10 -17 -15 -20 -25 -10 -7 7 -12 20 -12 30 0 13 7
17 33 15 31 -3 33 -1 29 25 -4 24 -6 26 -16 13 -7 -9 -19 -12 -33 -9 -29 8
-30 24 -2 24 11 0 17 5 14 10 -3 6 -15 10 -26 10 -10 0 -19 5 -19 10 0 14 44
12 58 -2 10 -10 11 -5 6 22 -9 54 -12 60 -29 54 -19 -8 -20 -24 0 -24 8 0 15
-4 15 -10 0 -16 -50 -12 -56 5 -4 8 -1 22 6 30 10 12 9 15 -4 15 -9 0 -16 5
-16 10 0 6 14 10 30 10 17 0 30 -5 30 -12 0 -6 2 -9 5 -7 2 3 0 18 -4 35 -5
16 -10 23 -10 17 -2 -21 -49 -15 -61 6 -18 35 -12 43 26 39 31 -4 35 -2 30 16
-3 12 -10 52 -17 89 -10 55 -17 71 -35 77 -14 6 -24 21 -28 45 -6 29 -3 39 14
53 18 15 19 19 7 35 -10 14 -31 20 -80 24 l-67 6 0 113 c0 64 -4 115 -10 119
-7 4 -10 325 -10 929 0 778 -2 930 -15 971 -8 27 -12 52 -9 57 12 19 -45 86
-93 109 l-48 24 -1340 2 c-737 0 -1359 -3 -1383 -8z m2644 -12 c113 -6 178
-35 206 -92 5 -11 -2 -6 -16 12 -15 17 -48 40 -74 50 -45 17 -113 18 -1402 18
-1289 0 -1357 -1 -1402 -18 -26 -10 -59 -33 -74 -50 -14 -18 -21 -23 -16 -12
28 57 95 87 212 94 113 7 2435 5 2566 -2z m-2663 -83 c-1 -10 -7 -46 -13 -79
-5 -33 -10 -79 -10 -102 l0 -42 1353 -1 c743 0 1373 3 1400 6 46 7 47 7 47 43
-1 20 -7 70 -14 111 -8 41 -10 79 -6 83 14 15 49 -12 72 -56 l23 -42 0 -3170
0 -3170 -21 -40 c-21 -40 -67 -76 -80 -62 -4 4 -2 24 4 46 7 21 15 73 18 115
l7 76 -1403 0 -1403 0 6 -82 c4 -46 11 -98 17 -117 12 -43 6 -50 -28 -31 -54
31 -64 66 -74 261 -5 102 -7 1477 -5 3157 2 2442 5 2985 16 3020 23 72 101
136 94 76z m2242 -74 c-3 -5 -11 -10 -16 -10 -6 0 -7 5 -4 10 3 6 11 10 16 10
6 0 7 -4 4 -10z m686 -2183 c-13 -13 -26 -3 -16 12 3 6 11 8 17 5 6 -4 6 -10
-1 -17z m33 -78 c6 -40 2 -59 -10 -46 -3 3 -8 24 -11 46 -7 54 12 54 21 0z
m108 -540 c53 -261 97 -480 98 -486 0 -7 -6 -13 -14 -13 -10 0 -19 20 -27 58
-91 433 -185 909 -182 915 17 30 38 -52 125 -474z m158 -169 c0 -6 -7 -13 -17
-17 -14 -5 -13 -8 5 -14 30 -11 29 -32 0 -24 -22 7 -48 31 -48 46 0 7 22 15
48 18 6 0 12 -4 12 -9z m33 -776 c48 -236 159 -775 246 -1199 87 -424 154
-772 149 -774 -5 -1 -12 -1 -15 2 -5 5 -493 2380 -493 2400 0 5 6 7 13 5 7 -3
45 -167 100 -434z m451 -2216 c21 -106 41 -215 47 -241 5 -26 9 -60 8 -75 l0
-27 -11 25 c-14 33 -106 493 -101 503 13 23 24 -12 57 -185z m-3830 -434 c3
-8 2 -12 -4 -9 -6 3 -10 10 -10 16 0 14 7 11 14 -7z m81 -77 c17 -9 26 -16 22
-17 -16 0 -63 29 -82 51 l-20 24 25 -21 c14 -12 39 -29 55 -37z m2745 -29 c0
-5 -75 -8 -167 -8 -1447 -1 -2467 3 -2503 8 -25 4 566 7 1312 7 747 0 1358 -3
1358 -7z"/>
<path d="M5162 4558 c5 -15 28 -23 28 -10 0 5 -7 13 -16 16 -10 4 -14 1 -12
-6z"/>
<path d="M5251 4207 c2 -1 12 -9 22 -16 14 -12 17 -11 17 3 0 10 -8 16 -22 16
-12 0 -19 -1 -17 -3z"/>
</g>
</svg>
