<?xml version="1.0" standalone="no"?>
<!DOCTYPE svg PUBLIC "-//W3C//DTD SVG 20010904//EN"
 "http://www.w3.org/TR/2001/REC-SVG-20010904/DTD/svg10.dtd">
<svg version="1.0" xmlns="http://www.w3.org/2000/svg"
 width="1000.000000pt" height="572.000000pt" viewBox="0 0 1000.000000 572.000000"
 preserveAspectRatio="xMidYMid meet">
<metadata>
Created by potrace 1.16, written by Peter Selinger 2001-2019
</metadata>
<g transform="translate(0.000000,572.000000) scale(0.100000,-0.100000)"
fill="#0e9bcf" stroke="none">
<path d="M4091 4446 c-46 -26 -50 -47 -51 -263 l0 -203 160 0 160 0 0 206 0
206 -34 34 c-34 34 -35 34 -122 34 -55 -1 -98 -6 -113 -14z"/>
<path d="M4891 4446 c-46 -26 -50 -47 -51 -263 l0 -203 160 0 160 0 0 200 c0
219 -5 246 -55 268 -35 16 -184 15 -214 -2z"/>
<path d="M5691 4446 c-46 -26 -50 -47 -51 -263 l0 -203 160 0 160 0 0 200 c0
219 -5 246 -55 268 -35 16 -184 15 -214 -2z"/>
<path d="M4043 3805 c-29 -8 -72 -24 -95 -36 -58 -29 -140 -109 -171 -167 -58
-107 -57 -87 -57 -1053 0 -553 4 -906 10 -939 31 -164 152 -292 315 -335 89
-23 1821 -23 1910 0 82 22 147 60 204 120 57 60 85 111 106 192 23 87 22 1820
0 1908 -43 163 -171 284 -335 315 -33 6 -384 10 -944 9 -735 0 -900 -3 -943
-14z m1678 -488 c18 -12 44 -38 56 -56 l23 -34 0 -687 0 -687 -22 -33 c-13
-18 -36 -43 -51 -54 -28 -21 -36 -21 -721 -24 l-692 -2 -34 23 c-19 12 -45 38
-57 57 l-23 34 2 692 c3 685 3 693 24 721 11 15 36 38 54 51 l33 22 687 0 687
0 34 -23z"/>
<path d="M4385 3155 l-25 -24 0 -591 0 -591 25 -24 24 -25 591 0 591 0 24 25
25 24 0 591 0 591 -25 24 -24 25 -591 0 -591 0 -24 -25z"/>
<path d="M3131 3486 c-39 -22 -50 -54 -51 -149 0 -88 0 -89 34 -123 l34 -34
206 0 206 0 0 160 0 160 -202 0 c-149 -1 -209 -4 -227 -14z"/>
<path d="M6440 3340 l0 -160 200 0 c269 0 280 6 280 160 0 154 -11 160 -280
160 l-200 0 0 -160z"/>
<path d="M3131 2686 c-39 -21 -50 -54 -51 -143 0 -157 10 -163 280 -163 l200
0 0 160 0 160 -202 0 c-149 -1 -209 -4 -227 -14z"/>
<path d="M6440 2540 l0 -160 206 0 206 0 34 34 c33 33 34 36 34 120 0 160 -9
166 -280 166 l-200 0 0 -160z"/>
<path d="M3131 1886 c-39 -21 -50 -54 -51 -143 0 -157 10 -163 280 -163 l200
0 0 160 0 160 -202 0 c-149 -1 -209 -4 -227 -14z"/>
<path d="M6440 1740 l0 -160 200 0 c269 0 280 6 280 160 0 154 -11 160 -280
160 l-200 0 0 -160z"/>
<path d="M4040 900 c0 -269 6 -280 160 -280 154 0 160 11 160 280 l0 200 -160
0 -160 0 0 -200z"/>
<path d="M4840 900 c0 -271 6 -280 166 -280 84 0 87 1 120 34 l34 34 0 206 0
206 -160 0 -160 0 0 -200z"/>
<path d="M5640 900 c0 -269 6 -280 160 -280 154 0 160 11 160 280 l0 200 -160
0 -160 0 0 -200z"/>
</g>
</svg>
