<?xml version="1.0" standalone="no"?>
<!DOCTYPE svg PUBLIC "-//W3C//DTD SVG 20010904//EN"
 "http://www.w3.org/TR/2001/REC-SVG-20010904/DTD/svg10.dtd">
<svg version="1.0" xmlns="http://www.w3.org/2000/svg"
 width="840.000000pt" height="980.000000pt" viewBox="0 0 840.000000 980.000000"
 preserveAspectRatio="xMidYMid meet">
<metadata>
Created by potrace 1.16, written by Peter Selinger 2001-2019
</metadata>
<g transform="translate(0.000000,980.000000) scale(0.100000,-0.100000)"
fill="#0e9bcf" stroke="none">
<path d="M3804 9382 l-2061 -2 -291 -434 -292 -434 487 5 c762 9 1178 -21
1593 -113 242 -54 488 -154 655 -265 152 -101 306 -268 390 -421 l37 -68 -99
0 c-54 0 -359 5 -678 10 -319 5 -803 11 -1075 15 -272 3 -547 8 -610 11 l-115
5 -263 -442 c-144 -243 -261 -443 -259 -445 6 -7 757 -14 1970 -20 1152 -6
1257 -8 1257 -23 0 -9 -13 -68 -29 -131 -163 -640 -524 -1035 -1123 -1229
-402 -130 -964 -174 -1657 -130 -84 5 -156 8 -158 5 -3 -2 -9 -185 -15 -405
l-10 -402 25 -32 c14 -17 379 -477 812 -1022 432 -545 1147 -1445 1588 -2002
l802 -1012 718 0 719 -1 -30 38 c-16 20 -732 942 -1592 2047 -860 1106 -1578
2029 -1597 2051 l-33 42 82 11 c1005 140 1807 544 2260 1137 204 268 339 565
404 894 15 74 27 136 28 137 1 1 168 4 371 7 204 4 439 9 522 12 l153 6 264
412 c145 226 267 417 271 424 8 14 -196 14 -1221 -4 l-341 -6 -8 59 c-29 233
-180 518 -420 793 l-56 65 757 5 756 5 269 422 c148 233 269 425 269 428 0 3
-307 4 -682 3 -376 -2 -1610 -4 -2744 -6z"/>
</g>
</svg>
