<?xml version="1.0" standalone="no"?>
<!DOCTYPE svg PUBLIC "-//W3C//DTD SVG 20010904//EN"
 "http://www.w3.org/TR/2001/REC-SVG-20010904/DTD/svg10.dtd">
<svg version="1.0" xmlns="http://www.w3.org/2000/svg"
 width="840.000000pt" height="859.000000pt" viewBox="0 0 840.000000 859.000000"
 preserveAspectRatio="xMidYMid meet">
<metadata>
Created by potrace 1.16, written by Peter Selinger 2001-2019
</metadata>
<g transform="translate(0.000000,859.000000) scale(0.100000,-0.100000)"
fill="#000000" stroke="none">
<path d="M1650 8520 c0 -5 -11 -10 -24 -10 -35 0 -109 -45 -163 -100 -64 -65
-73 -76 -73 -95 0 -8 -4 -15 -10 -15 -5 0 -10 -9 -10 -19 0 -11 -4 -23 -10
-26 -5 -3 -10 -24 -10 -45 0 -21 -4 -42 -10 -45 -7 -4 -10 -1308 -10 -3881 0
-2576 3 -3874 10 -3874 6 0 10 -20 10 -45 0 -25 5 -45 10 -45 6 0 10 -9 10
-20 0 -11 5 -20 10 -20 6 0 10 -7 10 -15 0 -20 12 -35 76 -99 64 -64 79 -76
99 -76 8 0 15 -4 15 -10 0 -5 11 -10 24 -10 14 0 27 -4 30 -9 3 -4 43 -12 88
-17 104 -10 4958 -12 4958 -1 0 4 25 7 55 7 30 0 55 4 55 9 0 5 13 11 29 14
16 3 36 13 44 22 9 8 22 15 29 15 18 0 128 116 128 135 0 8 5 15 10 15 6 0 10
9 10 20 0 11 5 20 10 20 6 0 10 14 10 30 0 17 5 30 10 30 7 0 10 1315 10 3924
0 2606 -3 3927 -10 3931 -6 3 -10 19 -10 36 0 16 -4 29 -10 29 -5 0 -10 9 -10
20 0 11 -4 20 -9 20 -5 0 -13 10 -17 22 -8 28 -94 114 -122 122 -12 4 -22 12
-22 17 0 5 -9 9 -20 9 -11 0 -20 5 -20 10 0 6 -11 10 -24 10 -14 0 -28 5 -31
10 -4 7 -870 10 -2566 10 -1699 0 -2559 -3 -2559 -10z m2615 -335 c52 -51 14
-140 -59 -138 -54 2 -73 29 -68 100 3 31 40 63 74 63 17 0 39 -10 53 -25z
m2643 -3928 l2 -3447 -2715 0 -2715 0 2 3443 3 3442 60 5 c33 3 1253 5 2710 5
l2650 0 3 -3448z m-2603 -3629 c14 -6 25 -15 25 -20 0 -4 6 -8 13 -8 30 0 82
-86 92 -151 9 -63 -17 -134 -71 -186 -24 -24 -50 -43 -59 -43 -8 0 -15 -4 -15
-10 0 -6 -32 -10 -75 -10 -43 0 -75 4 -75 10 0 6 -9 10 -20 10 -11 0 -20 5
-20 10 0 6 -8 10 -18 10 -10 0 -26 13 -35 30 -10 16 -25 37 -35 46 -13 14 -17
36 -17 103 0 75 3 90 25 121 54 76 94 98 187 99 40 1 84 -4 98 -11z"/>
</g>
</svg>
