<?xml version="1.0" standalone="no"?>
<!DOCTYPE svg PUBLIC "-//W3C//DTD SVG 20010904//EN"
 "http://www.w3.org/TR/2001/REC-SVG-20010904/DTD/svg10.dtd">
<svg version="1.0" xmlns="http://www.w3.org/2000/svg"
 width="512.000000pt" height="512.000000pt" viewBox="0 0 512.000000 512.000000"
 preserveAspectRatio="xMidYMid meet">

<g transform="translate(0.000000,512.000000) scale(0.100000,-0.100000)"
fill="#000000" stroke="none">
<path d="M1931 4793 c-17 -16 -32 -84 -103 -489 l-82 -472 -115 -4 c-144 -6
-200 -27 -266 -100 -61 -68 -75 -120 -75 -280 l0 -128 -110 0 c-159 0 -150 17
-150 -273 0 -214 2 -235 18 -250 15 -14 40 -17 130 -17 l112 0 0 -220 0 -220
-108 0 c-163 0 -152 19 -152 -266 0 -291 -9 -274 150 -274 l110 0 0 -128 c0
-158 15 -216 72 -278 66 -72 129 -96 266 -103 l116 -6 83 -465 c45 -256 87
-475 92 -487 l11 -23 624 0 c517 0 626 2 635 14 6 7 47 215 91 462 44 247 82
461 85 475 6 27 6 27 123 31 133 4 182 22 249 87 47 45 71 94 83 169 13 75 13
1949 0 2024 -12 74 -33 118 -79 166 -65 66 -118 85 -253 90 l-117 4 -10 52
c-6 28 -40 218 -76 421 -84 473 -84 472 -101 490 -13 13 -96 15 -624 15 -564
0 -609 -1 -629 -17z m1184 -105 c12 -49 145 -821 145 -839 0 -19 -16 -19 -705
-19 -557 0 -705 3 -705 13 0 23 150 848 155 858 4 5 231 9 555 9 l550 0 5 -22z
m518 -991 c93 -55 87 34 87 -1141 l0 -1029 -25 -44 c-16 -27 -42 -51 -68 -66
l-42 -22 -1020 0 c-561 0 -1032 3 -1047 7 -40 12 -89 57 -109 103 -18 38 -19
92 -19 1055 0 963 1 1017 19 1055 21 47 70 92 109 101 15 3 32 7 37 9 6 2 465
3 1020 2 l1010 -2 48 -28z m-2345 -650 l2 -168 -77 3 -78 3 -3 155 c-1 85 0
160 3 168 3 9 24 12 77 10 l73 -3 3 -168z m0 -974 l-3 -168 -75 0 -75 0 -3
155 c-1 85 0 160 2 167 4 9 28 13 81 13 l75 0 -2 -167z m1982 -785 c0 -2 -36
-199 -78 -438 l-78 -435 -557 -3 c-306 -1 -557 0 -557 3 0 3 -34 195 -75 427
-41 232 -75 428 -75 435 0 11 133 13 710 13 391 0 710 -1 710 -2z"/>
<path d="M1743 3377 c-176 -175 -194 -202 -161 -235 33 -33 59 -15 235 161 95
95 173 180 173 190 0 22 -35 57 -57 57 -9 0 -94 -78 -190 -173z"/>
<path d="M2255 3522 c-16 -11 -60 -51 -97 -91 -68 -71 -82 -103 -56 -129 28
-28 60 -13 145 70 91 89 106 117 78 148 -22 25 -32 25 -70 2z"/>
<path d="M1777 3047 c-191 -185 -198 -194 -195 -227 3 -32 6 -35 38 -38 33 -3
44 6 233 196 108 109 197 204 197 211 0 28 -21 51 -48 51 -21 -1 -68 -41 -225
-193z"/>
<path d="M2290 2948 c-19 -7 -58 -35 -86 -63 -40 -40 -54 -62 -64 -104 -20
-84 -7 -160 44 -266 38 -78 57 -103 138 -180 51 -50 124 -111 163 -137 68 -45
70 -46 100 -31 104 53 288 226 343 324 56 99 74 204 50 297 -16 64 -94 143
-161 161 -63 18 -142 9 -206 -23 l-51 -26 -52 26 c-61 31 -161 41 -218 22z
m156 -103 c19 -8 54 -30 78 -49 l43 -36 29 31 c121 129 302 65 291 -103 -5
-92 -60 -189 -159 -284 -46 -43 -102 -92 -125 -108 l-42 -28 -63 45 c-247 177
-343 428 -199 524 40 27 95 30 147 8z"/>
</g>
</svg>
