<?xml version="1.0" standalone="no"?>
<!DOCTYPE svg PUBLIC "-//W3C//DTD SVG 20010904//EN"
 "http://www.w3.org/TR/2001/REC-SVG-20010904/DTD/svg10.dtd">
<svg version="1.0" xmlns="http://www.w3.org/2000/svg"
 width="214.000000pt" height="235.000000pt" viewBox="0 0 214.000000 235.000000"
 preserveAspectRatio="xMidYMid meet">
<metadata>
Created by potrace 1.16, written by Peter Selinger 2001-2019
</metadata>
<g transform="translate(0.000000,235.000000) scale(0.100000,-0.100000)"
fill="#000000" stroke="none">
<path d="M62 2335 c-65 -28 -62 18 -62 -1060 0 -846 2 -980 15 -1005 32 -61
21 -60 457 -60 l398 0 0 60 0 60 -375 0 -375 0 2 948 3 947 443 3 442 2 0
-257 c0 -188 4 -265 13 -283 l13 -25 279 -5 280 -5 5 -205 5 -205 58 0 57 0 0
252 0 252 -102 98 c-57 54 -182 175 -278 269 -96 93 -192 185 -213 202 l-38
32 -497 0 c-408 -1 -503 -3 -530 -15z m1433 -537 c19 -17 14 -18 -168 -18
l-187 0 0 176 0 176 168 -158 c92 -87 176 -166 187 -176z"/>
<path d="M372 1918 c-7 -7 -12 -20 -12 -29 0 -34 24 -40 166 -37 137 3 139 3
142 26 7 46 -10 52 -152 52 -89 0 -136 -4 -144 -12z"/>
<path d="M370 1616 c-6 -8 -10 -25 -8 -38 l3 -23 239 -3 c240 -2 266 1 266 34
0 7 -7 20 -16 28 -22 23 -465 24 -484 2z"/>
<path d="M367 1313 c-11 -11 -8 -48 5 -61 9 -9 109 -12 388 -12 411 0 419 1
406 53 l-6 27 -394 0 c-216 0 -396 -3 -399 -7z"/>
<path d="M1182 1069 c-28 -14 -51 -36 -67 -64 l-25 -42 0 -412 c0 -451 0 -454
59 -504 55 -46 79 -48 487 -45 l380 3 42 27 c78 52 77 41 80 501 3 384 2 410
-16 451 -11 24 -37 56 -58 72 l-37 29 -401 3 c-392 2 -402 2 -444 -19z m477
-249 c64 -32 91 -73 91 -135 0 -30 5 -57 10 -60 19 -12 10 -42 -30 -104 -22
-34 -38 -67 -35 -72 8 -12 80 -49 97 -49 7 0 36 -11 65 -24 53 -25 83 -63 83
-106 0 -20 -4 -20 -330 -20 -220 0 -330 3 -330 10 0 21 28 75 47 93 11 9 53
28 93 42 69 24 110 48 110 66 0 5 -18 36 -40 70 -38 59 -39 64 -25 86 11 16
14 35 9 57 -8 46 18 100 62 125 19 11 34 25 34 31 0 16 48 12 89 -10z"/>
<path d="M372 1008 c-7 -7 -12 -19 -12 -28 0 -37 18 -40 267 -40 l243 0 0 40
0 40 -243 0 c-176 0 -246 -3 -255 -12z"/>
<path d="M370 705 c-7 -8 -10 -25 -6 -40 l6 -25 250 0 250 0 0 40 0 40 -244 0
c-203 0 -246 -2 -256 -15z"/>
</g>
</svg>
