<?xml version="1.0" standalone="no"?>
<!DOCTYPE svg PUBLIC "-//W3C//DTD SVG 20010904//EN"
 "http://www.w3.org/TR/2001/REC-SVG-20010904/DTD/svg10.dtd">
<svg version="1.0" xmlns="http://www.w3.org/2000/svg"
 width="200.000000pt" height="252.000000pt" viewBox="0 0 200.000000 252.000000"
 preserveAspectRatio="xMidYMid meet">
<metadata>
Created by potrace 1.16, written by Peter Selinger 2001-2019
</metadata>
<g transform="translate(0.000000,252.000000) scale(0.100000,-0.100000)"
fill="#000000" stroke="none">
<path d="M254 2401 c-58 -26 -106 -72 -134 -128 l-25 -48 -3 -955 -4 -955 34
-65 c37 -71 94 -122 156 -140 23 -6 222 -10 532 -10 l495 0 50 24 c54 24 109
80 130 130 12 29 11 32 -49 102 l-61 73 -8 -52 c-11 -66 -25 -95 -56 -116 -22
-14 -84 -16 -508 -19 l-482 -3 -40 37 -41 36 0 139 0 139 495 0 496 0 -28 35
-28 35 -467 0 -468 0 0 620 0 620 565 0 565 0 0 -363 0 -363 58 -50 c31 -28
63 -54 70 -58 10 -6 12 105 10 581 l-3 588 -27 47 c-35 58 -96 111 -147 126
-27 9 -187 12 -537 12 -464 0 -502 -2 -540 -19z m1052 -138 c42 -24 54 -58 61
-173 l6 -110 -566 0 -567 0 0 110 c0 108 0 110 31 144 25 29 39 36 77 39 26 2
247 4 492 3 328 -1 451 -4 466 -13z"/>
<path d="M649 2144 c-9 -11 -10 -20 -2 -32 15 -25 291 -25 306 -1 6 9 7 24 4
33 -9 24 -288 24 -308 0z"/>
<path d="M710 1789 c-47 -14 -61 -30 -62 -68 -1 -29 13 -47 116 -150 l116
-116 -70 -70 -70 -70 -118 118 c-119 118 -139 130 -182 107 -37 -20 -59 -148
-41 -245 16 -86 56 -162 120 -225 117 -116 291 -158 439 -107 l42 15 281 -325
c196 -225 293 -330 320 -343 166 -85 367 106 290 276 -20 44 -79 100 -445 419
l-217 190 8 35 c4 19 7 87 8 150 0 106 -2 119 -28 172 -43 88 -116 162 -203
204 -67 34 -83 37 -172 40 -53 2 -113 -1 -132 -7z m237 -121 c67 -25 137 -92
171 -166 35 -75 36 -182 4 -256 -12 -27 -22 -55 -22 -63 0 -17 2 -20 343 -320
359 -316 357 -314 357 -347 0 -63 -50 -116 -110 -116 -44 0 -57 13 -363 365
-124 143 -244 278 -266 300 -40 38 -42 39 -74 26 -84 -34 -124 -42 -183 -38
-158 12 -282 131 -301 289 l-6 53 108 -102 c79 -76 115 -103 134 -103 33 0
271 234 271 268 0 14 -35 58 -100 126 -55 57 -100 106 -100 110 0 10 80 -5
137 -26z"/>
<path d="M751 474 c-28 -35 -26 -69 4 -99 32 -33 83 -34 113 -2 47 50 11 127
-58 127 -30 0 -43 -6 -59 -26z"/>
</g>
</svg>
