<?xml version="1.0" standalone="no"?>
<!DOCTYPE svg PUBLIC "-//W3C//DTD SVG 20010904//EN"
 "http://www.w3.org/TR/2001/REC-SVG-20010904/DTD/svg10.dtd">
<svg version="1.0" xmlns="http://www.w3.org/2000/svg"
 width="225.000000pt" height="225.000000pt" viewBox="0 0 225.000000 225.000000"
 preserveAspectRatio="xMidYMid meet">
<metadata>
Created by potrace 1.16, written by Peter Selinger 2001-2019
</metadata>
<g transform="translate(0.000000,225.000000) scale(0.100000,-0.100000)"
fill="#000000" stroke="none">
<path d="M36 1818 c-14 -20 -16 -93 -16 -600 0 -565 0 -578 20 -598 19 -19 33
-20 455 -20 l435 0 0 -40 0 -40 -118 0 c-133 0 -152 -8 -152 -68 l0 -32 465 0
465 0 0 28 c0 15 -7 38 -16 50 -14 21 -23 22 -128 22 l-114 0 -6 31 c-3 17 -3
35 0 40 3 5 192 9 435 9 416 0 430 1 449 20 20 20 20 33 20 604 0 518 -2 586
-16 600 -14 14 -126 16 -1089 16 l-1074 0 -15 -22z m2144 -558 l0 -520 -1045
0 -1045 0 0 520 0 520 1045 0 1045 0 0 -520z"/>
</g>
</svg>
