<?xml version="1.0" standalone="no"?>
<!DOCTYPE svg PUBLIC "-//W3C//DTD SVG 20010904//EN"
 "http://www.w3.org/TR/2001/REC-SVG-20010904/DTD/svg10.dtd">
<svg version="1.0" xmlns="http://www.w3.org/2000/svg"
 width="820.000000pt" height="417.000000pt" viewBox="0 0 820.000000 417.000000"
 preserveAspectRatio="xMidYMid meet">

<g transform="translate(0.000000,417.000000) scale(0.100000,-0.100000)"
fill="#000000" stroke="none">
<path d="M1698 3743 c34 -2 90 -2 125 0 34 2 6 3 -63 3 -69 0 -97 -1 -62 -3z"/>
<path d="M3258 3743 c12 -2 32 -2 45 0 12 2 2 4 -23 4 -25 0 -35 -2 -22 -4z"/>
<path d="M4093 3743 c203 -2 531 -2 730 0 199 1 34 2 -368 2 -401 0 -564 -1
-362 -2z"/>
<path d="M5228 3743 c23 -2 61 -2 85 0 23 2 4 4 -43 4 -47 0 -66 -2 -42 -4z"/>
<path d="M5678 3743 c167 -2 437 -2 600 0 163 1 27 2 -303 2 -330 0 -464 -1
-297 -2z"/>
<path d="M6647 3688 c-10 -75 -8 -2836 1 -2842 5 -3 10 588 11 1439 1 795 0
1445 -2 1445 -3 0 -7 -19 -10 -42z"/>
<path d="M2481 3716 c14 -13 429 -16 2172 -16 l1957 0 0 -1415 0 -1415 -2512
2 -2513 3 -6 100 -5 100 0 -110 1 -110 1135 -5 c1042 -5 1125 -6 1012 -19
-101 -12 -303 -13 -1125 -9 -551 3 -1011 2 -1022 -3 -11 -4 297 -8 685 -9 388
-1 932 -3 1210 -6 278 -2 511 -4 518 -4 10 0 12 -9 8 -30 -3 -16 -9 -44 -12
-60 -6 -32 -39 -70 -61 -70 -7 0 -10 6 -6 16 5 13 -3 15 -63 10 -38 -4 -238
-13 -444 -21 -503 -20 -569 -24 -589 -35 -10 -6 22 -8 94 -5 229 10 739 13
712 5 -28 -9 -384 -19 -680 -20 -103 0 -156 -4 -152 -10 4 -6 106 -11 268 -12
144 0 246 -3 227 -6 -29 -3 -31 -6 -15 -12 12 -4 -3 -7 -40 -7 -33 1 -170 -13
-305 -31 -306 -40 -303 -39 -326 -56 -17 -13 -13 -13 31 -5 28 5 132 18 233
29 101 11 281 33 400 49 389 54 536 71 614 71 73 0 77 1 102 30 25 31 42 77
48 135 2 19 9 31 21 33 32 6 17 -82 -25 -140 -7 -9 -9 -21 -4 -25 4 -4 14 1
22 11 8 11 14 15 14 9 0 -17 -57 -61 -87 -67 -51 -10 -1326 -155 -1375 -156
-7 0 -4 -6 6 -12 14 -8 37 -8 85 0 36 7 118 16 181 22 179 16 734 68 955 90
240 24 301 25 481 5 174 -19 1137 -115 1222 -122 68 -6 102 8 81 33 -13 16
-76 29 -239 49 -191 24 -474 66 -479 71 -3 2 109 4 248 3 139 0 255 1 257 4
10 10 -9 36 -29 41 -12 3 -232 14 -487 25 -256 12 -501 23 -544 27 -69 6 -78
4 -73 -9 5 -14 2 -14 -18 -5 -25 11 -39 44 -48 109 l-5 36 831 6 c458 4 1010
7 1227 7 276 0 390 3 380 11 -10 7 -331 8 -1022 3 -823 -5 -1029 -4 -1125 7
-107 13 -12 14 1012 19 l1130 5 3 1433 2 1432 -2077 0 c-1142 0 -2074 -2
-2072 -4z m1417 -2873 c-10 -2 -26 -2 -35 0 -10 3 -2 5 17 5 19 0 27 -2 18 -5z
m435 0 c-7 -2 -21 -2 -30 0 -10 3 -4 5 12 5 17 0 24 -2 18 -5z m-283 -14 c0
-5 -9 -9 -20 -9 -11 0 -20 4 -20 8 0 4 9 8 20 9 11 1 20 -2 20 -8z m60 4 c0
-5 -11 -9 -25 -9 -14 -1 -25 2 -25 7 0 5 11 9 25 9 14 0 25 -3 25 -7z m80 -3
c0 -5 -16 -10 -35 -10 -19 0 -35 5 -35 10 0 6 16 10 35 10 19 0 35 -4 35 -10z
m-40 -59 c0 -15 5 -42 11 -60 13 -37 6 -50 -16 -31 -17 14 -22 120 -5 120 6 0
10 -13 10 -29z m219 -175 c79 -9 271 -35 425 -56 155 -22 346 -48 426 -59 265
-35 89 -22 -316 24 -765 86 -735 81 -764 129 -10 17 -10 19 1 9 18 -18 29 -16
29 4 0 14 5 12 28 -9 24 -22 44 -27 171 -42z m414 7 c-34 -2 -93 -2 -130 0
-37 2 -9 3 62 3 72 0 102 -1 68 -3z m520 -10 c-45 -2 -122 -2 -170 0 -48 1
-11 3 82 3 94 0 133 -2 88 -3z m125 -140 c-10 -2 -26 -2 -35 0 -10 3 -2 5 17
5 19 0 27 -2 18 -5z"/>
<path d="M1541 844 c0 -11 3 -14 6 -6 3 7 2 16 -1 19 -3 4 -6 -2 -5 -13z"/>
</g>
</svg>
