<?xml version="1.0" standalone="no"?>
<!DOCTYPE svg PUBLIC "-//W3C//DTD SVG 20010904//EN"
 "http://www.w3.org/TR/2001/REC-SVG-20010904/DTD/svg10.dtd">
<svg version="1.0" xmlns="http://www.w3.org/2000/svg"
 width="219.000000pt" height="230.000000pt" viewBox="0 0 219.000000 230.000000"
 preserveAspectRatio="xMidYMid meet">
<metadata>
Created by potrace 1.16, written by Peter Selinger 2001-2019
</metadata>
<g transform="translate(0.000000,230.000000) scale(0.100000,-0.100000)"
fill="#000000" stroke="none">
<path d="M885 2170 c-228 -49 -399 -144 -557 -308 -130 -135 -208 -271 -265
-457 -25 -83 -27 -104 -27 -270 -1 -145 3 -195 18 -255 49 -194 129 -340 266
-483 114 -119 184 -171 321 -237 139 -66 241 -90 407 -97 313 -13 569 84 789
300 228 222 334 491 321 811 -12 273 -114 503 -312 702 -147 146 -295 231
-496 284 -124 32 -342 37 -465 10z m456 -74 c182 -47 324 -128 460 -265 137
-136 218 -277 267 -461 21 -81 25 -117 25 -245 0 -130 -4 -163 -27 -249 -123
-469 -552 -781 -1031 -753 -366 22 -678 231 -840 562 -64 130 -93 241 -102
386 -16 285 89 559 290 757 165 164 358 261 579 292 101 14 273 3 379 -24z"/>
<path d="M637 1583 c-4 -3 -7 -194 -7 -423 0 -310 3 -419 12 -428 9 -9 68 -12
206 -12 173 0 193 2 188 16 -3 9 -6 24 -6 35 0 18 -9 19 -170 19 l-170 0 0
300 0 300 370 0 370 0 0 -99 c0 -94 1 -99 23 -105 12 -3 25 -6 30 -6 4 0 6 91
5 203 l-3 202 -421 3 c-231 1 -424 -1 -427 -5z m791 -90 l3 -33 -370 0 -371 0
0 28 c0 16 3 32 7 35 4 4 169 6 367 5 l361 -3 3 -32z"/>
<path d="M1310 1111 c-79 -26 -150 -89 -186 -166 -31 -65 -33 -173 -5 -237 27
-63 84 -123 143 -152 67 -33 189 -37 255 -6 52 23 122 92 148 145 28 57 32
173 9 233 -21 56 -94 136 -149 165 -44 22 -170 33 -215 18z m196 -69 c144 -74
178 -257 70 -379 -52 -59 -104 -83 -181 -83 -76 0 -128 24 -182 82 -122 134
-62 341 117 399 40 13 133 3 176 -19z"/>
<path d="M1372 978 c-7 -7 -12 -42 -12 -88 0 -46 5 -81 12 -88 7 -7 41 -12 85
-12 59 0 74 3 82 18 15 29 -3 44 -58 50 l-51 5 0 51 c0 50 -12 76 -35 76 -6 0
-16 -5 -23 -12z"/>
</g>
</svg>
