<?xml version="1.0" standalone="no"?>
<!DOCTYPE svg PUBLIC "-//W3C//DTD SVG 20010904//EN"
 "http://www.w3.org/TR/2001/REC-SVG-20010904/DTD/svg10.dtd">
<svg version="1.0" xmlns="http://www.w3.org/2000/svg"
 width="225.000000pt" height="225.000000pt" viewBox="0 0 225.000000 225.000000"
 preserveAspectRatio="xMidYMid meet">

<g transform="translate(0.000000,225.000000) scale(0.100000,-0.100000)"
fill="#000000" stroke="none">
<path d="M989 2232 c-104 -42 -200 -125 -243 -209 -23 -46 -30 -135 -17 -227
10 -70 9 -81 -5 -97 -22 -24 -14 -112 15 -172 11 -23 29 -71 41 -107 30 -91
75 -166 135 -226 153 -154 326 -134 461 54 31 42 62 102 79 149 15 43 36 98
48 123 27 59 35 154 14 178 -12 13 -13 28 -7 67 15 89 11 196 -9 240 -34 77
-160 163 -311 214 -91 32 -146 35 -201 13z"/>
<path d="M815 1094 c-55 -39 -208 -115 -270 -134 -158 -50 -258 -165 -301
-345 -31 -127 -17 -454 20 -484 14 -11 156 -56 221 -70 271 -59 697 -75 1025
-40 124 13 317 52 405 82 83 28 86 35 105 193 27 223 -22 432 -126 545 -57 60
-103 89 -204 125 -95 34 -179 75 -252 125 -32 22 -61 39 -64 39 -4 0 -22 -14
-42 -31 -125 -110 -280 -110 -416 0 -21 17 -42 31 -45 30 -3 0 -28 -16 -56
-35z"/>
</g>
</svg>
